# xmcd CD database file
#
# Track frame offsets:
#	150
#	19620
#	34265
#	51137
#	68605
#	85505
#	105015
#	124362
#	144160
#	160920
#	177217
#	193722
#	211207
#	229607
#
# Disc length: 3220 seconds
#
# Revision: 2
# Processed by: cddbd v1.5.2PL0 Copyright (c) Steve Scherf et al.
# Submitted via: CdAid (MTCDDB.DLL V2003.12.21)
#
DISCID=a90c920e
DTITLE=Sérgio Pinheyro and Rafael - Sérgio Pinheyro and Rafael
DYEAR=1997
DGENRE=Folk
TTITLE0=Te perdi
TTITLE1=Só 8 segundos
TTITLE2=Sentimento raro
TTITLE3=Perdido na rua
TTITLE4=Pra você voltar
TTITLE5=Luz divina
TTITLE6=Me ama
TTITLE7=Nunca mais vou te esquecer
TTITLE8=Cowboy de coração
TTITLE9=Outro homem
TTITLE10=Olha só como ela mexe
TTITLE11=A gente quebra o pau
TTITLE12=Manhãs de setembro
TTITLE13=Forró gostoso
EXTD=ID3G:  80 YEAR: 1996
EXTT0=
EXTT1=
EXTT2=
EXTT3=
EXTT4=
EXTT5=
EXTT6=
EXTT7=
EXTT8=
EXTT9=
EXTT10=
EXTT11=
EXTT12=
EXTT13=
PLAYORDER=
